<svg width="60" height="60" fill="none" xmlns="http://www.w3.org/2000/svg"><circle cx="30" cy="30" r="30" fill="#C4C4C4"/><path d="M27.385 28.594v-3.965h2.863c1.563 0 2.477.735 2.477 1.987 0 1.29-.97 1.978-2.835 1.978h-2.505zm0 6.046h3.051c1.903 0 2.91-.773 2.91-2.214 0-1.421-1.045-2.165-3.032-2.165h-2.929v4.378z" fill="#000"/><path d="M23.571 17.143a6.429 6.429 0 00-6.428 6.428V36.43a6.429 6.429 0 006.428 6.428h12.857a6.429 6.429 0 006.43-6.428V23.57a6.429 6.429 0 00-6.43-6.428H23.572zm1.705 19.286V22.84h5.462c2.552 0 4.087 1.3 4.087 3.39 0 1.422-1.046 2.693-2.383 2.92v.16c1.836.188 3.06 1.497 3.06 3.267 0 2.392-1.742 3.852-4.642 3.852h-5.584z" fill="#000"/></svg>