<svg width="70" height="70" fill="none" xmlns="http://www.w3.org/2000/svg"><circle cx="35" cy="35" r="35" fill="#C4C4C4"/><path d="M31.95 33.36v-4.626h3.34c1.823 0 2.889.857 2.889 2.318 0 1.505-1.132 2.307-3.307 2.307H31.95zm0 7.053h3.559c2.22 0 3.395-.901 3.395-2.582 0-1.66-1.22-2.527-3.538-2.527H31.95v5.109z" fill="#000"/><path d="M27.5 20a7.5 7.5 0 00-7.5 7.5v15a7.5 7.5 0 007.5 7.5h15a7.5 7.5 0 007.5-7.5v-15a7.5 7.5 0 00-7.5-7.5h-15zm1.988 22.5V26.647h6.373c2.977 0 4.768 1.516 4.768 3.955 0 1.659-1.22 3.142-2.78 3.406v.186c2.143.22 3.57 1.747 3.57 3.813 0 2.79-2.032 4.493-5.416 4.493h-6.515z" fill="#000"/></svg>