<svg width="40" height="40" fill="none" xmlns="http://www.w3.org/2000/svg"><g id="bx:bxl-wordpress"><path id="Vector" d="M33.152 12.98a14.943 14.943 0 011.831 7.188 14.976 14.976 0 01-7.45 12.952l4.577-13.232c.855-2.136 1.14-3.848 1.14-5.365 0-.516-.032-1.031-.098-1.543zm-11.085.145a23.527 23.527 0 001.71-.147c.808-.105.713-1.291-.094-1.248 0 0-2.438.187-4 .187-1.478 0-3.958-.209-3.958-.209-.812-.04-.917 1.189-.102 1.23 0 0 .749.087 1.564.125l2.331 6.397-3.291 9.832-5.457-16.207a28.136 28.136 0 001.713-.138c.812-.105.717-1.292-.091-1.245 0 0-2.425.191-3.992.191-.278 0-.608-.011-.958-.021C10.155 7.877 14.77 5.188 20 5.188c3.902 0 7.452 1.49 10.118 3.934-.063-.004-.126-.014-.195-.014-1.471 0-2.516 1.284-2.516 2.66 0 1.235.711 2.282 1.471 3.514.572 1.001 1.237 2.283 1.237 4.135 0 1.271-.492 2.77-1.142 4.831l-1.493 4.979-5.417-16.125.004.023zM20 35.145a14.97 14.97 0 01-4.233-.607l4.495-13.063 4.605 12.62c.035.073.07.142.108.207-1.599.56-3.28.847-4.975.846v-.003zM5.017 20.168a14.9 14.9 0 011.296-6.096l7.145 19.581a14.988 14.988 0 01-8.441-13.485zM20 3.502c-9.188 0-16.667 7.478-16.667 16.666 0 9.189 7.479 16.667 16.667 16.667 9.188 0 16.667-7.478 16.667-16.667 0-9.188-7.479-16.666-16.667-16.666" fill="#000"/></g></svg>