<svg width="70" height="70" fill="none" xmlns="http://www.w3.org/2000/svg"><circle cx="35" cy="35" r="35" fill="#C4C4C4"/><path d="M42.017 39.395a12.133 12.133 0 002.358-7.208c0-6.73-5.456-12.187-12.188-12.187C25.457 20 20 25.456 20 32.188c0 6.73 5.456 12.187 12.188 12.187 2.697 0 5.19-.876 7.208-2.36l-.001.002c.055.075.117.146.185.214l7.22 7.22a1.875 1.875 0 102.65-2.652l-7.219-7.22a1.897 1.897 0 00-.214-.184zm.483-7.208c0 5.696-4.617 10.313-10.313 10.313-5.695 0-10.312-4.617-10.312-10.313 0-5.695 4.617-10.312 10.313-10.312 5.695 0 10.312 4.617 10.312 10.313z" fill="#000"/></svg>