<svg width="201" height="21" fill="none" xmlns="http://www.w3.org/2000/svg"><path d="M18.581.554l-8.086 19.841H8.086L0 .554h2.146c.24 0 .434.06.582.18.147.12.258.272.332.457l5.594 13.998c.12.314.235.656.346 1.025.12.37.226.757.318 1.163.093-.406.19-.794.291-1.163.102-.37.213-.71.333-1.025l5.58-13.998a.987.987 0 01.318-.43.9.9 0 01.595-.207h2.146zm7.602 13.528c-1.135.036-2.104.129-2.907.276-.794.139-1.445.323-1.953.554-.498.231-.863.503-1.093.817a1.782 1.782 0 00-.333 1.053c0 .369.06.687.18.955.12.268.282.49.485.665.212.166.457.29.734.373.286.074.59.111.914.111.433 0 .83-.041 1.19-.124.36-.093.697-.222 1.011-.388.323-.166.628-.365.914-.595a7.48 7.48 0 00.858-.79v-2.908zm-7.961-5.733c.775-.747 1.61-1.306 2.506-1.675.895-.37 1.888-.554 2.977-.554.785 0 1.482.13 2.09.388a4.28 4.28 0 011.538 1.08c.415.461.729 1.02.941 1.675.213.655.319 1.376.319 2.16v8.972h-1.094c-.24 0-.425-.037-.554-.11-.13-.084-.23-.24-.305-.471l-.277-1.33c-.369.342-.729.647-1.08.914-.35.259-.72.48-1.107.665-.388.175-.803.31-1.246.402a6.389 6.389 0 01-1.454.152 5.199 5.199 0 01-1.537-.222c-.48-.157-.9-.387-1.26-.692a3.351 3.351 0 01-.845-1.15c-.203-.47-.304-1.024-.304-1.66 0-.555.152-1.085.457-1.593.304-.517.798-.974 1.481-1.37.683-.398 1.574-.72 2.672-.97 1.099-.259 2.447-.406 4.043-.443v-1.094c0-1.09-.235-1.91-.706-2.465-.47-.563-1.158-.844-2.063-.844-.609 0-1.121.078-1.537.235a5.453 5.453 0 00-1.066.513 16.31 16.31 0 00-.775.512 1.11 1.11 0 01-.637.221.735.735 0 01-.43-.124 1.31 1.31 0 01-.304-.333l-.443-.789zm16.451.056c.305-.342.628-.651.97-.928a6.199 6.199 0 011.08-.706 5.244 5.244 0 011.218-.457c.434-.11.9-.166 1.398-.166.767 0 1.44.129 2.022.387.59.25 1.08.61 1.468 1.08.396.462.697 1.02.9 1.676a7.32 7.32 0 01.304 2.174v8.93h-2.478v-8.93c0-1.062-.245-1.883-.734-2.465-.48-.59-1.214-.886-2.202-.886a4.18 4.18 0 00-2.049.526c-.628.35-1.21.826-1.745 1.426v10.33h-2.478V6.368h1.481c.351 0 .568.171.651.513l.194 1.523zm21.285.277a.546.546 0 01-.512.304.956.956 0 01-.471-.152 8.299 8.299 0 00-.65-.332c-.25-.13-.55-.245-.9-.347a4.194 4.194 0 00-1.247-.166c-.415 0-.79.056-1.122.166a2.675 2.675 0 00-.858.43 2.02 2.02 0 00-.54.65c-.12.24-.18.503-.18.79 0 .36.102.66.304.9.213.24.49.447.831.623.342.175.73.332 1.163.47.434.13.877.273 1.33.43a15.2 15.2 0 011.343.498c.434.185.821.415 1.163.693.341.276.614.618.817 1.024.212.397.318.877.318 1.44a4.63 4.63 0 01-.346 1.8 3.991 3.991 0 01-1.025 1.426c-.452.397-1.006.711-1.661.942-.656.23-1.413.346-2.27.346-.98 0-1.865-.157-2.66-.47-.793-.324-1.467-.735-2.02-1.233l.58-.942a.846.846 0 01.264-.277.71.71 0 01.387-.096c.166 0 .342.064.526.193.185.13.407.273.665.43.268.156.59.3.97.429.378.129.849.194 1.412.194.48 0 .9-.06 1.26-.18.36-.13.66-.3.9-.513.24-.212.415-.457.526-.733.12-.277.18-.573.18-.887 0-.387-.106-.706-.319-.955a2.429 2.429 0 00-.816-.65 6.009 6.009 0 00-1.177-.472l-1.343-.429c-.453-.147-.9-.314-1.344-.498a4.935 4.935 0 01-1.163-.72 3.337 3.337 0 01-.83-1.053c-.203-.424-.305-.937-.305-1.537 0-.535.11-1.047.332-1.536a3.7 3.7 0 01.97-1.302c.424-.378.946-.678 1.564-.9.619-.222 1.325-.332 2.119-.332.923 0 1.749.147 2.478.443a5.773 5.773 0 011.91 1.19l-.553.9zm8.117 11.935c-1.108 0-1.962-.31-2.562-.928-.59-.618-.886-1.509-.886-2.672V8.432h-1.689a.57.57 0 01-.374-.124c-.101-.093-.152-.231-.152-.416V6.91l2.298-.29.568-4.334a.587.587 0 01.18-.333.554.554 0 01.388-.138h1.246v4.832h4.057v1.786h-4.057v8.419c0 .59.143 1.029.43 1.315.285.286.655.43 1.107.43.258 0 .48-.033.664-.098.194-.073.36-.152.499-.235a5.77 5.77 0 00.346-.222c.102-.073.19-.11.263-.11.13 0 .245.078.346.235l.72 1.177c-.424.397-.937.71-1.537.942-.6.221-1.218.332-1.855.332zm11.45-14.469c1.024 0 1.948.17 2.77.512a5.935 5.935 0 012.104 1.454c.581.628 1.024 1.39 1.329 2.284.314.887.47 1.879.47 2.977 0 1.108-.156 2.105-.47 2.991-.305.886-.748 1.643-1.33 2.27a5.936 5.936 0 01-2.104 1.455c-.821.332-1.745.498-2.77.498-1.033 0-1.965-.166-2.796-.498a5.935 5.935 0 01-2.105-1.454c-.581-.628-1.029-1.385-1.343-2.27-.304-.887-.457-1.884-.457-2.992 0-1.098.153-2.09.457-2.976.314-.896.762-1.657 1.343-2.285a5.934 5.934 0 012.105-1.454c.83-.342 1.763-.512 2.797-.512zm0 12.517c1.384 0 2.418-.462 3.101-1.385.683-.932 1.025-2.23 1.025-3.89 0-1.671-.341-2.973-1.025-3.905-.683-.933-1.717-1.399-3.101-1.399-.702 0-1.316.12-1.842.36-.517.24-.95.586-1.301 1.039-.342.452-.6 1.01-.776 1.675-.166.655-.249 1.399-.249 2.23 0 1.66.342 2.958 1.025 3.89.692.923 1.74 1.385 3.143 1.385zM87.65 8.405c.305-.342.629-.651.97-.928a6.203 6.203 0 011.08-.706 5.243 5.243 0 011.219-.457c.434-.11.9-.166 1.398-.166.766 0 1.44.129 2.022.387.59.25 1.08.61 1.467 1.08.397.462.697 1.02.9 1.676a7.32 7.32 0 01.305 2.174v8.93h-2.478v-8.93c0-1.062-.245-1.883-.734-2.465-.48-.59-1.214-.886-2.202-.886-.73 0-1.412.175-2.05.526a6.777 6.777 0 00-1.744 1.426v10.33h-2.478V6.368h1.481c.351 0 .568.171.651.513l.194 1.523zm22.504 3.447c0-.572-.083-1.094-.249-1.564a3.316 3.316 0 00-.706-1.233 2.986 2.986 0 00-1.122-.803c-.443-.194-.946-.29-1.509-.29-1.182 0-2.118.346-2.811 1.038-.683.683-1.107 1.634-1.274 2.852h7.671zm1.994 6.577c-.305.37-.669.693-1.094.97a6.953 6.953 0 01-1.371.664 8.08 8.08 0 01-1.495.388 8.728 8.728 0 01-1.537.138c-.969 0-1.865-.161-2.686-.484a6.087 6.087 0 01-2.119-1.44c-.59-.637-1.052-1.422-1.384-2.354-.332-.932-.499-2.003-.499-3.213 0-.978.148-1.892.443-2.741a6.484 6.484 0 011.302-2.202 5.843 5.843 0 012.063-1.467c.812-.36 1.726-.54 2.742-.54.84 0 1.615.143 2.326.429a5.08 5.08 0 011.855 1.218c.526.527.937 1.182 1.232 1.967.296.775.444 1.661.444 2.658 0 .388-.042.646-.125.775-.083.13-.24.194-.471.194H102.4c.028.886.148 1.657.36 2.313.222.655.526 1.204.914 1.647.388.434.849.762 1.385.983.535.213 1.135.319 1.8.319.618 0 1.149-.07 1.592-.208a7.98 7.98 0 001.163-.47c.323-.167.591-.32.803-.458.222-.147.411-.221.568-.221.203 0 .36.078.471.235l.692.9zm29.248-7.947c0 1.486-.235 2.852-.706 4.098-.471 1.237-1.135 2.303-1.994 3.199a8.972 8.972 0 01-3.101 2.09c-1.2.49-2.53.734-3.988.734-1.459 0-2.788-.245-3.988-.734a9.014 9.014 0 01-3.088-2.09c-.858-.896-1.523-1.962-1.993-3.199-.471-1.246-.707-2.612-.707-4.098 0-1.487.236-2.848.707-4.085.47-1.246 1.135-2.317 1.993-3.212a8.92 8.92 0 013.088-2.105c1.2-.498 2.529-.748 3.988-.748 1.458 0 2.788.25 3.988.748a8.88 8.88 0 013.101 2.105c.859.895 1.523 1.966 1.994 3.212.471 1.237.706 2.598.706 4.085zm-2.755 0c0-1.219-.166-2.313-.499-3.282-.332-.97-.803-1.786-1.412-2.45a6.092 6.092 0 00-2.215-1.552c-.868-.36-1.837-.54-2.908-.54-1.062 0-2.026.18-2.894.54a6.213 6.213 0 00-2.229 1.551c-.609.665-1.08 1.482-1.413 2.451-.332.97-.498 2.063-.498 3.282 0 1.218.166 2.312.498 3.281.333.96.804 1.777 1.413 2.45a6.295 6.295 0 002.229 1.538c.868.35 1.832.526 2.894.526 1.071 0 2.04-.175 2.908-.526a6.17 6.17 0 002.215-1.537c.609-.674 1.08-1.49 1.412-2.45.333-.97.499-2.064.499-3.282zm8.072-2.077c.305-.342.628-.651.97-.928a6.161 6.161 0 011.08-.706 5.223 5.223 0 011.218-.457c.434-.11.9-.166 1.399-.166.766 0 1.44.129 2.021.387.591.25 1.08.61 1.468 1.08.397.462.697 1.02.9 1.676.203.655.304 1.38.304 2.174v8.93h-2.478v-8.93c0-1.062-.245-1.883-.734-2.465-.48-.59-1.214-.886-2.201-.886a4.18 4.18 0 00-2.05.526 6.776 6.776 0 00-1.744 1.426v10.33h-2.479V6.368h1.482c.351 0 .567.171.651.513l.193 1.523zM162.377 0v20.395h-2.465V0h2.465zm6.6 6.37v14.025h-2.465V6.37h2.465zm.526-4.404c0 .24-.051.466-.153.679a1.875 1.875 0 01-.387.553 1.734 1.734 0 01-.568.374 1.68 1.68 0 01-.678.139c-.24 0-.467-.046-.679-.139a1.828 1.828 0 01-.54-.374 2.034 2.034 0 01-.374-.553 1.688 1.688 0 01-.138-.679c0-.24.046-.466.138-.678.093-.222.217-.411.374-.568.157-.166.337-.295.54-.388a1.69 1.69 0 01.679-.138c.24 0 .466.046.678.138.222.093.411.222.568.388.166.157.295.346.387.568.102.212.153.438.153.678zm5.849 6.439c.305-.342.628-.651.969-.928a6.236 6.236 0 011.08-.706 5.247 5.247 0 011.219-.457c.434-.11.9-.166 1.398-.166.767 0 1.44.129 2.022.387.591.25 1.08.61 1.468 1.08.397.462.697 1.02.9 1.676.203.655.304 1.38.304 2.174v8.93h-2.478v-8.93c0-1.062-.245-1.883-.734-2.465-.48-.59-1.214-.886-2.202-.886a4.18 4.18 0 00-2.049.526 6.76 6.76 0 00-1.744 1.426v10.33h-2.479V6.368h1.482c.35 0 .567.171.65.513l.194 1.523zm22.503 3.447c0-.572-.083-1.094-.249-1.564a3.316 3.316 0 00-.706-1.233 2.982 2.982 0 00-1.121-.803 3.737 3.737 0 00-1.51-.29c-1.181 0-2.118.346-2.81 1.038-.684.683-1.108 1.634-1.274 2.852h7.67zm1.994 6.577c-.304.37-.669.693-1.094.97a6.972 6.972 0 01-1.37.664 8.09 8.09 0 01-1.496.388 8.728 8.728 0 01-1.537.138c-.969 0-1.864-.161-2.686-.484a6.084 6.084 0 01-2.118-1.44c-.591-.637-1.053-1.422-1.385-2.354-.332-.932-.498-2.003-.498-3.213 0-.978.147-1.892.443-2.741a6.465 6.465 0 011.301-2.202 5.843 5.843 0 012.063-1.467c.813-.36 1.727-.54 2.742-.54.84 0 1.615.143 2.326.429.72.277 1.339.683 1.855 1.218.527.527.937 1.182 1.233 1.967.295.775.443 1.661.443 2.658 0 .388-.042.646-.125.775-.083.13-.24.194-.471.194h-9.373c.027.886.147 1.657.36 2.313.221.655.526 1.204.913 1.647.388.434.85.762 1.385.983.535.213 1.135.319 1.8.319.619 0 1.149-.07 1.592-.208a8.11 8.11 0 001.163-.47 9.2 9.2 0 00.804-.458c.221-.147.41-.221.567-.221.203 0 .36.078.471.235l.692.9z" fill="#F1EDED"/></svg>