<svg width="217" height="23" fill="none" xmlns="http://www.w3.org/2000/svg"><path d="M20.13.6l-8.76 21.495H8.76L0 .6h2.325c.26 0 .47.065.63.195.16.13.28.295.36.495l6.06 15.165c.13.34.255.71.375 1.11.13.4.245.82.345 1.26.1-.44.205-.86.315-1.26.11-.4.23-.77.36-1.11L16.815 1.29c.06-.17.175-.325.345-.465A.975.975 0 0117.805.6h2.325zm8.236 14.655c-1.23.04-2.28.14-3.15.3-.86.15-1.566.35-2.116.6-.54.25-.934.545-1.184.885-.24.34-.36.72-.36 1.14 0 .4.064.745.194 1.035.13.29.305.53.526.72.23.18.494.315.794.405.31.08.64.12.99.12.47 0 .9-.045 1.29-.135.39-.1.755-.24 1.095-.42.35-.18.68-.395.99-.645.32-.25.63-.535.93-.855v-3.15zm-8.625-6.21c.84-.81 1.744-1.415 2.715-1.815.97-.4 2.044-.6 3.224-.6.85 0 1.605.14 2.265.42.66.28 1.215.67 1.665 1.17.45.5.79 1.105 1.02 1.815.23.71.346 1.49.346 2.34v9.72H29.79c-.26 0-.46-.04-.6-.12-.14-.09-.25-.26-.33-.51l-.3-1.44c-.4.37-.79.7-1.17.99-.38.28-.78.52-1.2.72-.42.19-.87.335-1.35.435-.47.11-.995.165-1.576.165-.59 0-1.145-.08-1.665-.24-.52-.17-.975-.42-1.365-.75a3.631 3.631 0 01-.915-1.245c-.22-.51-.33-1.11-.33-1.8 0-.6.166-1.175.495-1.725.33-.56.866-1.055 1.605-1.485.74-.43 1.706-.78 2.895-1.05 1.19-.28 2.65-.44 4.38-.48v-1.185c0-1.18-.255-2.07-.764-2.67-.51-.61-1.255-.915-2.235-.915-.66 0-1.215.085-1.665.255a5.91 5.91 0 00-1.155.555c-.32.2-.6.385-.84.555-.23.16-.46.24-.69.24a.796.796 0 01-.465-.135c-.13-.1-.24-.22-.33-.36l-.48-.855zm17.822.06c.33-.37.68-.705 1.05-1.005.37-.3.76-.555 1.17-.765.42-.22.86-.385 1.32-.495.47-.12.975-.18 1.515-.18.83 0 1.56.14 2.19.42.64.27 1.17.66 1.59 1.17.43.5.755 1.105.975 1.815.22.71.33 1.495.33 2.355v9.675h-2.685V12.42c0-1.15-.265-2.04-.795-2.67-.52-.64-1.315-.96-2.385-.96-.79 0-1.53.19-2.22.57a7.34 7.34 0 00-1.89 1.545v11.19h-2.685V6.9h1.605c.38 0 .615.185.705.555l.21 1.65zm23.058.3a.592.592 0 01-.555.33c-.15 0-.32-.055-.51-.165-.19-.11-.425-.23-.705-.36a5.38 5.38 0 00-.975-.375c-.38-.12-.83-.18-1.35-.18-.45 0-.855.06-1.215.18-.36.11-.67.265-.93.465-.25.2-.445.435-.585.705-.13.26-.195.545-.195.855 0 .39.11.715.33.975.23.26.53.485.9.675.37.19.79.36 1.26.51.47.14.95.295 1.44.465.5.16.985.34 1.455.54.47.2.89.45 1.26.75s.665.67.885 1.11c.23.43.345.95.345 1.56 0 .7-.125 1.35-.375 1.95-.25.59-.62 1.105-1.11 1.545-.49.43-1.09.77-1.8 1.02s-1.53.375-2.46.375c-1.06 0-2.02-.17-2.88-.51-.86-.35-1.59-.795-2.19-1.335l.63-1.02c.08-.13.175-.23.285-.3a.77.77 0 01.42-.105c.18 0 .37.07.57.21.2.14.44.295.72.465.29.17.64.325 1.05.465.41.14.92.21 1.53.21.52 0 .975-.065 1.365-.195.39-.14.715-.325.975-.555.26-.23.45-.495.57-.795.13-.3.195-.62.195-.96 0-.42-.115-.765-.345-1.035a2.631 2.631 0 00-.885-.705c-.37-.2-.795-.37-1.275-.51l-1.455-.465a19.6 19.6 0 01-1.455-.54c-.47-.21-.89-.47-1.26-.78-.37-.31-.67-.69-.9-1.14-.22-.46-.33-1.015-.33-1.665 0-.58.12-1.135.36-1.665.24-.54.59-1.01 1.05-1.41.46-.41 1.025-.735 1.695-.975.67-.24 1.435-.36 2.295-.36 1 0 1.895.16 2.685.48.8.31 1.49.74 2.07 1.29l-.6.975zm8.794 12.93c-1.2 0-2.125-.335-2.775-1.005-.64-.67-.96-1.635-.96-2.895v-9.3h-1.83A.619.619 0 0163.445 9c-.11-.1-.165-.25-.165-.45V7.485l2.49-.315.615-4.695c.03-.15.095-.27.195-.36a.6.6 0 01.42-.15h1.35V7.2h4.395v1.935H68.35v9.12c0 .64.155 1.115.465 1.425.31.31.71.465 1.2.465.28 0 .52-.035.72-.105.21-.08.39-.165.54-.255.15-.09.275-.17.375-.24.11-.08.205-.12.285-.12.14 0 .265.085.375.255l.78 1.275c-.46.43-1.015.77-1.665 1.02-.65.24-1.32.36-2.01.36zM81.819 6.66c1.11 0 2.11.185 3 .555.89.37 1.65.895 2.28 1.575.63.68 1.11 1.505 1.44 2.475.34.96.51 2.035.51 3.225 0 1.2-.17 2.28-.51 3.24-.33.96-.81 1.78-1.44 2.46a6.429 6.429 0 01-2.28 1.575c-.89.36-1.89.54-3 .54-1.12 0-2.13-.18-3.03-.54a6.429 6.429 0 01-2.28-1.575c-.63-.68-1.115-1.5-1.455-2.46-.33-.96-.495-2.04-.495-3.24 0-1.19.165-2.265.495-3.225.34-.97.825-1.795 1.455-2.475a6.429 6.429 0 012.28-1.575c.9-.37 1.91-.555 3.03-.555zm0 13.56c1.5 0 2.62-.5 3.36-1.5.74-1.01 1.11-2.415 1.11-4.215 0-1.81-.37-3.22-1.11-4.23-.74-1.01-1.86-1.515-3.36-1.515-.76 0-1.425.13-1.995.39-.56.26-1.03.635-1.41 1.125-.37.49-.65 1.095-.84 1.815-.18.71-.27 1.515-.27 2.415 0 1.8.37 3.205 1.11 4.215.75 1 1.885 1.5 3.405 1.5zM94.955 9.105c.33-.37.68-.705 1.05-1.005.37-.3.76-.555 1.17-.765.42-.22.86-.385 1.32-.495.47-.12.975-.18 1.515-.18.83 0 1.56.14 2.19.42.64.27 1.17.66 1.59 1.17.43.5.755 1.105.975 1.815.22.71.33 1.495.33 2.355v9.675h-2.685V12.42c0-1.15-.265-2.04-.795-2.67-.52-.64-1.315-.96-2.385-.96-.79 0-1.53.19-2.22.57a7.34 7.34 0 00-1.89 1.545v11.19h-2.685V6.9h1.605c.38 0 .615.185.705.555l.21 1.65zm24.379 3.735c0-.62-.09-1.185-.27-1.695a3.593 3.593 0 00-.765-1.335 3.23 3.23 0 00-1.215-.87c-.48-.21-1.025-.315-1.635-.315-1.28 0-2.295.375-3.045 1.125-.74.74-1.2 1.77-1.38 3.09h8.31zm2.16 7.125c-.33.4-.725.75-1.185 1.05-.46.29-.955.53-1.485.72-.52.19-1.06.33-1.62.42-.56.1-1.115.15-1.665.15-1.05 0-2.02-.175-2.91-.525a6.59 6.59 0 01-2.295-1.56c-.64-.69-1.14-1.54-1.5-2.55-.36-1.01-.54-2.17-.54-3.48 0-1.06.16-2.05.48-2.97.33-.92.8-1.715 1.41-2.385a6.329 6.329 0 012.235-1.59c.88-.39 1.87-.585 2.97-.585.91 0 1.75.155 2.52.465.78.3 1.45.74 2.01 1.32.57.57 1.015 1.28 1.335 2.13.32.84.48 1.8.48 2.88 0 .42-.045.7-.135.84-.09.14-.26.21-.51.21h-10.155c.03.96.16 1.795.39 2.505.24.71.57 1.305.99 1.785.42.47.92.825 1.5 1.065.58.23 1.23.345 1.95.345.67 0 1.245-.075 1.725-.225.49-.16.91-.33 1.26-.51s.64-.345.87-.495c.24-.16.445-.24.615-.24.22 0 .39.085.51.255l.75.975zm31.685-8.61c0 1.61-.255 3.09-.765 4.44-.51 1.34-1.23 2.495-2.16 3.465-.93.97-2.05 1.725-3.36 2.265-1.3.53-2.74.795-4.32.795s-3.02-.265-4.32-.795a9.758 9.758 0 01-3.345-2.265c-.93-.97-1.65-2.125-2.16-3.465-.51-1.35-.765-2.83-.765-4.44 0-1.61.255-3.085.765-4.425.51-1.35 1.23-2.51 2.16-3.48a9.657 9.657 0 013.345-2.28c1.3-.54 2.74-.81 4.32-.81s3.02.27 4.32.81c1.31.54 2.43 1.3 3.36 2.28.93.97 1.65 2.13 2.16 3.48.51 1.34.765 2.815.765 4.425zm-2.985 0c0-1.32-.18-2.505-.54-3.555-.36-1.05-.87-1.935-1.53-2.655a6.597 6.597 0 00-2.4-1.68c-.94-.39-1.99-.585-3.15-.585-1.15 0-2.195.195-3.135.585-.94.39-1.745.95-2.415 1.68-.66.72-1.17 1.605-1.53 2.655-.36 1.05-.54 2.235-.54 3.555 0 1.32.18 2.505.54 3.555.36 1.04.87 1.925 1.53 2.655a6.829 6.829 0 002.415 1.665c.94.38 1.985.57 3.135.57 1.16 0 2.21-.19 3.15-.57.94-.39 1.74-.945 2.4-1.665.66-.73 1.17-1.615 1.53-2.655.36-1.05.54-2.235.54-3.555zm8.746-2.25c.33-.37.68-.705 1.05-1.005.37-.3.76-.555 1.17-.765.42-.22.86-.385 1.32-.495.47-.12.975-.18 1.515-.18.83 0 1.56.14 2.19.42.64.27 1.17.66 1.59 1.17.43.5.755 1.105.975 1.815.22.71.33 1.495.33 2.355v9.675h-2.685V12.42c0-1.15-.265-2.04-.795-2.67-.52-.64-1.315-.96-2.385-.96-.79 0-1.53.19-2.22.57a7.34 7.34 0 00-1.89 1.545v11.19h-2.685V6.9h1.605c.38 0 .615.185.705.555l.21 1.65zM175.908 0v22.095h-2.67V0h2.67zm7.15 6.9v15.195h-2.67V6.9h2.67zm.57-4.77c0 .26-.055.505-.165.735-.1.22-.24.42-.42.6-.17.17-.375.305-.615.405-.23.1-.475.15-.735.15s-.505-.05-.735-.15c-.22-.1-.415-.235-.585-.405-.17-.18-.305-.38-.405-.6-.1-.23-.15-.475-.15-.735s.05-.505.15-.735c.1-.24.235-.445.405-.615.17-.18.365-.32.585-.42.23-.1.475-.15.735-.15s.505.05.735.15c.24.1.445.24.615.42.18.17.32.375.42.615.11.23.165.475.165.735zm6.337 6.975c.33-.37.68-.705 1.05-1.005.37-.3.76-.555 1.17-.765.42-.22.86-.385 1.32-.495.47-.12.975-.18 1.515-.18.83 0 1.56.14 2.19.42.64.27 1.17.66 1.59 1.17.43.5.755 1.105.975 1.815.22.71.33 1.495.33 2.355v9.675h-2.685V12.42c0-1.15-.265-2.04-.795-2.67-.52-.64-1.315-.96-2.385-.96-.79 0-1.53.19-2.22.57a7.34 7.34 0 00-1.89 1.545v11.19h-2.685V6.9h1.605c.38 0 .615.185.705.555l.21 1.65zm24.378 3.735c0-.62-.09-1.185-.27-1.695a3.593 3.593 0 00-.765-1.335 3.23 3.23 0 00-1.215-.87c-.48-.21-1.025-.315-1.635-.315-1.28 0-2.295.375-3.045 1.125-.74.74-1.2 1.77-1.38 3.09h8.31zm2.16 7.125c-.33.4-.725.75-1.185 1.05-.46.29-.955.53-1.485.72-.52.19-1.06.33-1.62.42-.56.1-1.115.15-1.665.15-1.05 0-2.02-.175-2.91-.525a6.59 6.59 0 01-2.295-1.56c-.64-.69-1.14-1.54-1.5-2.55-.36-1.01-.54-2.17-.54-3.48 0-1.06.16-2.05.48-2.97.33-.92.8-1.715 1.41-2.385a6.329 6.329 0 012.235-1.59c.88-.39 1.87-.585 2.97-.585.91 0 1.75.155 2.52.465.78.3 1.45.74 2.01 1.32.57.57 1.015 1.28 1.335 2.13.32.84.48 1.8.48 2.88 0 .42-.045.7-.135.84-.09.14-.26.21-.51.21h-10.155c.03.96.16 1.795.39 2.505.24.71.57 1.305.99 1.785.42.47.92.825 1.5 1.065.58.23 1.23.345 1.95.345.67 0 1.245-.075 1.725-.225.49-.16.91-.33 1.26-.51s.64-.345.87-.495c.24-.16.445-.24.615-.24.22 0 .39.085.51.255l.75.975z" fill="#F1EDED"/></svg>