<svg width="60" height="60" fill="none" xmlns="http://www.w3.org/2000/svg"><circle cx="30" cy="30" r="30" fill="#C4C4C4"/><path d="M41.273 23.983a12.809 12.809 0 011.57 6.161 12.838 12.838 0 01-6.386 11.102l3.923-11.342c.733-1.831.977-3.298.977-4.598 0-.443-.027-.884-.084-1.323zm-9.502.124c.49-.024.98-.066 1.466-.125.693-.09.612-1.108-.08-1.07 0 0-2.09.16-3.428.16-1.268 0-3.393-.18-3.393-.18-.696-.033-.786 1.02-.087 1.055 0 0 .641.075 1.34.107l1.998 5.483-2.821 8.427-4.677-13.891c.772-.037 1.468-.119 1.468-.119.696-.09.614-1.107-.078-1.067 0 0-2.079.165-3.422.165-.238 0-.521-.01-.821-.02C21.56 19.61 25.517 17.305 30 17.305a12.79 12.79 0 018.673 3.372c-.054-.003-.109-.012-.167-.012-1.262 0-2.157 1.1-2.157 2.28 0 1.059.61 1.956 1.261 3.012.49.858 1.06 1.957 1.06 3.544 0 1.09-.421 2.374-.979 4.142l-1.28 4.267-4.642-13.822.002.02zM30 42.981a12.832 12.832 0 01-3.629-.52l3.853-11.197 3.947 10.817c.03.063.06.122.093.178a12.88 12.88 0 01-4.264.725v-.003zM17.157 30.144a12.77 12.77 0 011.112-5.225l6.124 16.784a12.846 12.846 0 01-7.236-11.559zM30 15.86c-7.876 0-14.286 6.41-14.286 14.285 0 7.876 6.41 14.286 14.286 14.286 7.876 0 14.286-6.41 14.286-14.286 0-7.875-6.41-14.285-14.286-14.285" fill="#000"/></svg>