<svg width="70" height="70" viewBox="0 0 70 70" fill="none" xmlns="http://www.w3.org/2000/svg">
<circle cx="35" cy="35" r="35" fill="#C4C4C4"/>
<path d="M31.9495 33.3594V28.7341H35.2893C37.113 28.7341 38.1787 29.5911 38.1787 31.0522C38.1787 32.5574 37.0471 33.3594 34.8718 33.3594H31.9495Z" fill="black"/>
<path d="M31.9495 40.4126H35.509C37.7283 40.4126 38.9038 39.5117 38.9038 37.8308C38.9038 36.1719 37.6843 35.304 35.3662 35.304H31.9495V40.4126Z" fill="black"/>
<path d="M27.5 20C23.3579 20 20 23.3579 20 27.5V42.5C20 46.6421 23.3579 50 27.5 50H42.5C46.6421 50 50 46.6421 50 42.5V27.5C50 23.3579 46.6421 20 42.5 20H27.5ZM29.4885 42.5V26.6467H35.8606C38.8379 26.6467 40.6287 28.1628 40.6287 30.6018C40.6287 32.2607 39.4092 33.7439 37.8491 34.0076V34.1943C39.9915 34.4141 41.4197 35.9412 41.4197 38.0066C41.4197 40.7971 39.3872 42.5 36.0034 42.5H29.4885Z" fill="black"/>
</svg>
