<svg width="60" height="60" viewBox="0 0 60 60" fill="none" xmlns="http://www.w3.org/2000/svg">
<circle cx="30" cy="30" r="30" fill="#C4C4C4"/>
<path d="M27.3852 28.5938V24.6293H30.2479C31.8111 24.6293 32.7246 25.3639 32.7246 26.6163C32.7246 27.9064 31.7546 28.5938 29.8901 28.5938H27.3852Z" fill="black"/>
<path d="M27.3852 34.6395H30.4363C32.3385 34.6395 33.3461 33.8673 33.3461 32.4265C33.3461 31.0046 32.3008 30.2606 30.3139 30.2606H27.3852V34.6395Z" fill="black"/>
<path d="M23.5714 17.1429C20.021 17.1429 17.1428 20.0211 17.1428 23.5715V36.4287C17.1428 39.9791 20.021 42.8572 23.5714 42.8572H36.4285C39.9789 42.8572 42.8571 39.9791 42.8571 36.4287V23.5715C42.8571 20.0211 39.9789 17.1429 36.4285 17.1429H23.5714ZM25.2758 36.4287V22.8401H30.7376C33.2896 22.8401 34.8245 24.1397 34.8245 26.2302C34.8245 27.6522 33.7793 28.9234 32.4421 29.1494V29.3095C34.2784 29.4979 35.5025 30.8068 35.5025 32.5772C35.5025 34.969 33.7604 36.4287 30.86 36.4287H25.2758Z" fill="black"/>
</svg>
