<svg width="40" height="40" viewBox="0 0 40 40" fill="none" xmlns="http://www.w3.org/2000/svg">
<g id="bx:bxl-wordpress">
<path id="Vector" d="M33.1517 12.98C34.3567 15.1841 34.9867 17.6564 34.9833 20.1683C34.984 22.7904 34.2962 25.3667 32.9888 27.6396C31.6814 29.9125 29.8002 31.8023 27.5333 33.12L32.11 19.8883C32.965 17.7517 33.25 16.04 33.25 14.5233C33.2506 14.0073 33.2178 13.4918 33.1517 12.98V12.98ZM22.0667 13.125C22.6383 13.0969 23.2086 13.048 23.7767 12.9783C24.585 12.8733 24.49 11.6867 23.6833 11.73C23.6833 11.73 21.245 11.9167 19.6833 11.9167C18.205 11.9167 15.725 11.7083 15.725 11.7083C14.9133 11.6683 14.8083 12.8967 15.6233 12.9383C15.6233 12.9383 16.3717 13.025 17.1867 13.0633L19.5183 19.46L16.2267 29.2917L10.77 13.085C11.6717 13.0417 12.4833 12.9467 12.4833 12.9467C13.295 12.8417 13.2 11.655 12.3917 11.7017C12.3917 11.7017 9.96668 11.8933 8.40001 11.8933C8.12168 11.8933 7.79168 11.8817 7.44168 11.8717C10.155 7.87667 14.77 5.18833 20 5.18833C23.9017 5.18833 27.4517 6.67833 30.1183 9.12167C30.055 9.11833 29.9917 9.10833 29.9233 9.10833C28.4517 9.10833 27.4067 10.3917 27.4067 11.7683C27.4067 13.0033 28.1183 14.05 28.8783 15.2817C29.45 16.2833 30.115 17.565 30.115 19.4167C30.115 20.6883 29.6233 22.1867 28.9733 24.2483L27.48 29.2267L22.0633 13.1017L22.0667 13.125V13.125ZM20 35.145C18.5671 35.1464 17.1415 34.9421 15.7667 34.5383L20.2617 21.475L24.8667 34.095C24.9017 34.1683 24.9367 34.2367 24.975 34.3017C23.3763 34.8623 21.6942 35.1486 20 35.1483V35.145ZM5.01668 20.1683C5.01425 18.0674 5.45614 15.9897 6.31334 14.0717L13.4583 33.6533C10.9274 32.4245 8.79352 30.508 7.30067 28.1233C5.80781 25.7386 5.0163 22.9818 5.01668 20.1683V20.1683ZM20 3.50167C10.8117 3.50167 3.33334 10.98 3.33334 20.1683C3.33334 29.3567 10.8117 36.835 20 36.835C29.1883 36.835 36.6667 29.3567 36.6667 20.1683C36.6667 10.98 29.1883 3.50167 20 3.50167" fill="black"/>
</g>
</svg>
