<svg width="70" height="70" viewBox="0 0 70 70" fill="none" xmlns="http://www.w3.org/2000/svg">
<circle cx="35" cy="35" r="35" fill="#C4C4C4"/>
<path d="M29.1666 18.3334C27.8405 18.3334 26.5688 18.8602 25.6311 19.7978C24.6934 20.7355 24.1666 22.0073 24.1666 23.3334C24.1666 24.6595 24.6934 25.9312 25.6311 26.8689C26.5688 27.8066 27.8405 28.3334 29.1666 28.3334H40.8333C42.1594 28.3334 43.4311 27.8066 44.3688 26.8689C45.3065 25.9312 45.8333 24.6595 45.8333 23.3334C45.8333 22.0073 45.3065 20.7355 44.3688 19.7978C43.4311 18.8602 42.1594 18.3334 40.8333 18.3334H29.1666Z" fill="black"/>
<path d="M40.8333 30C39.5072 30 38.2354 30.5268 37.2977 31.4645C36.36 32.4021 35.8333 33.6739 35.8333 35C35.8333 36.3261 36.36 37.5979 37.2977 38.5355C38.2354 39.4732 39.5072 40 40.8333 40C42.1593 40 43.4311 39.4732 44.3688 38.5355C45.3065 37.5979 45.8333 36.3261 45.8333 35C45.8333 33.6739 45.3065 32.4021 44.3688 31.4645C43.4311 30.5268 42.1593 30 40.8333 30V30Z" fill="black"/>
<path d="M24.1666 35C24.1666 33.6739 24.6934 32.4021 25.6311 31.4645C26.5688 30.5268 27.8405 30 29.1666 30H34.1666V40H29.1666C27.8405 40 26.5688 39.4732 25.6311 38.5355C24.6934 37.5979 24.1666 36.3261 24.1666 35Z" fill="black"/>
<path d="M29.1666 41.6667C28.1777 41.6667 27.211 41.96 26.3888 42.5094C25.5665 43.0588 24.9257 43.8397 24.5472 44.7533C24.1688 45.667 24.0698 46.6723 24.2627 47.6422C24.4556 48.6121 24.9318 49.503 25.6311 50.2023C26.3304 50.9015 27.2213 51.3777 28.1912 51.5707C29.1611 51.7636 30.1664 51.6646 31.08 51.2861C31.9937 50.9077 32.7746 50.2668 33.324 49.4446C33.8734 48.6224 34.1666 47.6557 34.1666 46.6667V41.6667H29.1666Z" fill="black"/>
</svg>
