<svg width="60" height="60" viewBox="0 0 60 60" fill="none" xmlns="http://www.w3.org/2000/svg">
<circle cx="30" cy="30" r="30" fill="#C4C4C4"/>
<path d="M36.0142 33.7669C37.2851 32.0367 38.0357 29.9006 38.0357 27.5892C38.0357 21.8198 33.3587 17.1428 27.5893 17.1428C21.8199 17.1428 17.1429 21.8198 17.1429 27.5892C17.1429 33.3587 21.8199 38.0357 27.5893 38.0357C29.9013 38.0357 32.0379 37.2846 33.7684 36.0131L33.767 36.0142C33.8144 36.0784 33.8672 36.14 33.9254 36.1981L40.1136 42.3864C40.7412 43.014 41.7588 43.014 42.3864 42.3864C43.0141 41.7588 43.0141 40.7412 42.3864 40.1135L36.1982 33.9253C36.14 33.8671 36.0785 33.8143 36.0142 33.7669ZM36.4286 27.5892C36.4286 32.4711 32.4711 36.4285 27.5893 36.4285C22.7075 36.4285 18.75 32.4711 18.75 27.5892C18.75 22.7074 22.7075 18.75 27.5893 18.75C32.4711 18.75 36.4286 22.7074 36.4286 27.5892Z" fill="black"/>
</svg>
