<svg width="70" height="70" viewBox="0 0 70 70" fill="none" xmlns="http://www.w3.org/2000/svg">
<circle cx="35" cy="35" r="35" fill="#C4C4C4"/>
<path d="M42.0166 39.3948C43.4992 37.3762 44.375 34.8841 44.375 32.1875C44.375 25.4565 38.9185 20 32.1875 20C25.4565 20 20 25.4565 20 32.1875C20 38.9185 25.4565 44.375 32.1875 44.375C34.8848 44.375 37.3775 43.4987 39.3964 42.0153L39.3948 42.0166C39.4501 42.0915 39.5117 42.1633 39.5796 42.2312L46.7992 49.4508C47.5314 50.1831 48.7186 50.1831 49.4508 49.4508C50.1831 48.7186 50.1831 47.5314 49.4508 46.7992L42.2312 39.5796C42.1633 39.5117 42.0915 39.4501 42.0166 39.3948ZM42.5 32.1875C42.5 37.8829 37.8829 42.5 32.1875 42.5C26.4921 42.5 21.875 37.8829 21.875 32.1875C21.875 26.4921 26.4921 21.875 32.1875 21.875C37.8829 21.875 42.5 26.4921 42.5 32.1875Z" fill="black"/>
</svg>
