<svg width="217" height="23" viewBox="0 0 217 23" fill="none" xmlns="http://www.w3.org/2000/svg">
<path d="M20.13 0.6L11.37 22.095H8.76L0 0.6H2.325C2.585 0.6 2.795 0.664999 2.955 0.795C3.115 0.925 3.235 1.09 3.315 1.29L9.375 16.455C9.505 16.795 9.63 17.165 9.75 17.565C9.88 17.965 9.995 18.385 10.095 18.825C10.195 18.385 10.3 17.965 10.41 17.565C10.52 17.165 10.64 16.795 10.77 16.455L16.815 1.29C16.875 1.12 16.99 0.965 17.16 0.824999C17.34 0.674999 17.555 0.6 17.805 0.6H20.13Z" fill="#F1EDED"/>
<path d="M28.3655 15.255C27.1355 15.295 26.0855 15.395 25.2155 15.555C24.3555 15.705 23.6505 15.905 23.1005 16.155C22.5605 16.405 22.1655 16.7 21.9155 17.04C21.6755 17.38 21.5555 17.76 21.5555 18.18C21.5555 18.58 21.6205 18.925 21.7505 19.215C21.8805 19.505 22.0555 19.745 22.2755 19.935C22.5055 20.115 22.7705 20.25 23.0705 20.34C23.3805 20.42 23.7105 20.46 24.0605 20.46C24.5305 20.46 24.9605 20.415 25.3505 20.325C25.7405 20.225 26.1055 20.085 26.4455 19.905C26.7955 19.725 27.1255 19.51 27.4355 19.26C27.7555 19.01 28.0655 18.725 28.3655 18.405V15.255ZM19.7405 9.045C20.5805 8.235 21.4855 7.63 22.4555 7.23C23.4255 6.83 24.5005 6.63 25.6805 6.63C26.5305 6.63 27.2855 6.77 27.9455 7.05C28.6055 7.33 29.1605 7.72 29.6105 8.22C30.0605 8.72 30.4005 9.325 30.6305 10.035C30.8605 10.745 30.9755 11.525 30.9755 12.375V22.095H29.7905C29.5305 22.095 29.3305 22.055 29.1905 21.975C29.0505 21.885 28.9405 21.715 28.8605 21.465L28.5605 20.025C28.1605 20.395 27.7705 20.725 27.3905 21.015C27.0105 21.295 26.6105 21.535 26.1905 21.735C25.7705 21.925 25.3205 22.07 24.8405 22.17C24.3705 22.28 23.8455 22.335 23.2655 22.335C22.6755 22.335 22.1205 22.255 21.6005 22.095C21.0805 21.925 20.6255 21.675 20.2355 21.345C19.8555 21.015 19.5505 20.6 19.3205 20.1C19.1005 19.59 18.9905 18.99 18.9905 18.3C18.9905 17.7 19.1555 17.125 19.4855 16.575C19.8155 16.015 20.3505 15.52 21.0905 15.09C21.8305 14.66 22.7955 14.31 23.9855 14.04C25.1755 13.76 26.6355 13.6 28.3655 13.56V12.375C28.3655 11.195 28.1105 10.305 27.6005 9.705C27.0905 9.095 26.3455 8.79 25.3655 8.79C24.7055 8.79 24.1505 8.875 23.7005 9.045C23.2605 9.205 22.8755 9.39 22.5455 9.6C22.2255 9.8 21.9455 9.985 21.7055 10.155C21.4755 10.315 21.2455 10.395 21.0155 10.395C20.8355 10.395 20.6805 10.35 20.5505 10.26C20.4205 10.16 20.3105 10.04 20.2205 9.9L19.7405 9.045Z" fill="#F1EDED"/>
<path d="M37.5626 9.105C37.8926 8.735 38.2426 8.4 38.6126 8.1C38.9826 7.8 39.3726 7.545 39.7826 7.335C40.2026 7.115 40.6426 6.95 41.1026 6.84C41.5726 6.72 42.0776 6.66 42.6176 6.66C43.4476 6.66 44.1776 6.8 44.8076 7.08C45.4476 7.35 45.9776 7.74 46.3976 8.25C46.8276 8.75 47.1526 9.355 47.3726 10.065C47.5926 10.775 47.7026 11.56 47.7026 12.42V22.095H45.0176V12.42C45.0176 11.27 44.7526 10.38 44.2226 9.75C43.7026 9.11 42.9076 8.79 41.8376 8.79C41.0476 8.79 40.3076 8.98 39.6176 9.36C38.9376 9.74 38.3076 10.255 37.7276 10.905V22.095H35.0426V6.9H36.6476C37.0276 6.9 37.2626 7.085 37.3526 7.455L37.5626 9.105Z" fill="#F1EDED"/>
<path d="M60.6211 9.405C60.5011 9.625 60.3161 9.735 60.0661 9.735C59.9161 9.735 59.7461 9.68 59.5561 9.57C59.3661 9.46 59.1311 9.34 58.8511 9.21C58.5811 9.07 58.2561 8.945 57.8761 8.835C57.4961 8.715 57.0461 8.655 56.5261 8.655C56.0761 8.655 55.6711 8.715 55.3111 8.835C54.9511 8.945 54.6411 9.1 54.3811 9.3C54.1311 9.5 53.9361 9.735 53.7961 10.005C53.6661 10.265 53.6011 10.55 53.6011 10.86C53.6011 11.25 53.7111 11.575 53.9311 11.835C54.1611 12.095 54.4611 12.32 54.8311 12.51C55.2011 12.7 55.6211 12.87 56.0911 13.02C56.5611 13.16 57.0411 13.315 57.5311 13.485C58.0311 13.645 58.5161 13.825 58.9861 14.025C59.4561 14.225 59.8761 14.475 60.2461 14.775C60.6161 15.075 60.9111 15.445 61.1311 15.885C61.3611 16.315 61.4761 16.835 61.4761 17.445C61.4761 18.145 61.3511 18.795 61.1011 19.395C60.8511 19.985 60.4811 20.5 59.9911 20.94C59.5011 21.37 58.9011 21.71 58.1911 21.96C57.4811 22.21 56.6611 22.335 55.7311 22.335C54.6711 22.335 53.7111 22.165 52.8511 21.825C51.9911 21.475 51.2611 21.03 50.6611 20.49L51.2911 19.47C51.3711 19.34 51.4661 19.24 51.5761 19.17C51.6861 19.1 51.8261 19.065 51.9961 19.065C52.1761 19.065 52.3661 19.135 52.5661 19.275C52.7661 19.415 53.0061 19.57 53.2861 19.74C53.5761 19.91 53.9261 20.065 54.3361 20.205C54.7461 20.345 55.2561 20.415 55.8661 20.415C56.3861 20.415 56.8411 20.35 57.2311 20.22C57.6211 20.08 57.9461 19.895 58.2061 19.665C58.4661 19.435 58.6561 19.17 58.7761 18.87C58.9061 18.57 58.9711 18.25 58.9711 17.91C58.9711 17.49 58.8561 17.145 58.6261 16.875C58.4061 16.595 58.1111 16.36 57.7411 16.17C57.3711 15.97 56.9461 15.8 56.4661 15.66C55.9961 15.51 55.5111 15.355 55.0111 15.195C54.5211 15.035 54.0361 14.855 53.5561 14.655C53.0861 14.445 52.6661 14.185 52.2961 13.875C51.9261 13.565 51.6261 13.185 51.3961 12.735C51.1761 12.275 51.0661 11.72 51.0661 11.07C51.0661 10.49 51.1861 9.935 51.4261 9.405C51.6661 8.865 52.0161 8.395 52.4761 7.995C52.9361 7.585 53.5011 7.26 54.1711 7.02C54.8411 6.78 55.6061 6.66 56.4661 6.66C57.4661 6.66 58.3611 6.82 59.1511 7.14C59.9511 7.45 60.6411 7.88 61.2211 8.43L60.6211 9.405Z" fill="#F1EDED"/>
<path d="M69.4146 22.335C68.2146 22.335 67.2896 22 66.6396 21.33C65.9996 20.66 65.6796 19.695 65.6796 18.435V9.135H63.8496C63.6896 9.135 63.5546 9.09 63.4446 9C63.3346 8.9 63.2796 8.75 63.2796 8.55V7.485L65.7696 7.17L66.3846 2.475C66.4146 2.325 66.4796 2.205 66.5796 2.115C66.6896 2.015 66.8296 1.965 66.9996 1.965H68.3496V7.2H72.7446V9.135H68.3496V18.255C68.3496 18.895 68.5046 19.37 68.8146 19.68C69.1246 19.99 69.5246 20.145 70.0146 20.145C70.2946 20.145 70.5346 20.11 70.7346 20.04C70.9446 19.96 71.1246 19.875 71.2746 19.785C71.4246 19.695 71.5496 19.615 71.6496 19.545C71.7596 19.465 71.8546 19.425 71.9346 19.425C72.0746 19.425 72.1996 19.51 72.3096 19.68L73.0896 20.955C72.6296 21.385 72.0746 21.725 71.4246 21.975C70.7746 22.215 70.1046 22.335 69.4146 22.335Z" fill="#F1EDED"/>
<path d="M81.8187 6.66C82.9287 6.66 83.9287 6.845 84.8187 7.215C85.7087 7.585 86.4687 8.11 87.0987 8.79C87.7287 9.47 88.2087 10.295 88.5387 11.265C88.8787 12.225 89.0487 13.3 89.0487 14.49C89.0487 15.69 88.8787 16.77 88.5387 17.73C88.2087 18.69 87.7287 19.51 87.0987 20.19C86.4687 20.87 85.7087 21.395 84.8187 21.765C83.9287 22.125 82.9287 22.305 81.8187 22.305C80.6987 22.305 79.6887 22.125 78.7887 21.765C77.8987 21.395 77.1387 20.87 76.5087 20.19C75.8787 19.51 75.3937 18.69 75.0537 17.73C74.7237 16.77 74.5587 15.69 74.5587 14.49C74.5587 13.3 74.7237 12.225 75.0537 11.265C75.3937 10.295 75.8787 9.47 76.5087 8.79C77.1387 8.11 77.8987 7.585 78.7887 7.215C79.6887 6.845 80.6987 6.66 81.8187 6.66ZM81.8187 20.22C83.3187 20.22 84.4387 19.72 85.1787 18.72C85.9187 17.71 86.2887 16.305 86.2887 14.505C86.2887 12.695 85.9187 11.285 85.1787 10.275C84.4387 9.265 83.3187 8.76 81.8187 8.76C81.0587 8.76 80.3937 8.89 79.8237 9.15C79.2637 9.41 78.7937 9.785 78.4137 10.275C78.0437 10.765 77.7637 11.37 77.5737 12.09C77.3937 12.8 77.3037 13.605 77.3037 14.505C77.3037 16.305 77.6737 17.71 78.4137 18.72C79.1637 19.72 80.2987 20.22 81.8187 20.22Z" fill="#F1EDED"/>
<path d="M94.9552 9.105C95.2852 8.735 95.6352 8.4 96.0052 8.1C96.3752 7.8 96.7652 7.545 97.1752 7.335C97.5952 7.115 98.0352 6.95 98.4952 6.84C98.9652 6.72 99.4702 6.66 100.01 6.66C100.84 6.66 101.57 6.8 102.2 7.08C102.84 7.35 103.37 7.74 103.79 8.25C104.22 8.75 104.545 9.355 104.765 10.065C104.985 10.775 105.095 11.56 105.095 12.42V22.095H102.41V12.42C102.41 11.27 102.145 10.38 101.615 9.75C101.095 9.11 100.3 8.79 99.2302 8.79C98.4402 8.79 97.7002 8.98 97.0102 9.36C96.3302 9.74 95.7002 10.255 95.1202 10.905V22.095H92.4352V6.9H94.0402C94.4202 6.9 94.6552 7.085 94.7452 7.455L94.9552 9.105Z" fill="#F1EDED"/>
<path d="M119.334 12.84C119.334 12.22 119.244 11.655 119.064 11.145C118.894 10.625 118.639 10.18 118.299 9.81C117.969 9.43 117.564 9.14 117.084 8.94C116.604 8.73 116.059 8.625 115.449 8.625C114.169 8.625 113.154 9 112.404 9.75C111.664 10.49 111.204 11.52 111.024 12.84H119.334ZM121.494 19.965C121.164 20.365 120.769 20.715 120.309 21.015C119.849 21.305 119.354 21.545 118.824 21.735C118.304 21.925 117.764 22.065 117.204 22.155C116.644 22.255 116.089 22.305 115.539 22.305C114.489 22.305 113.519 22.13 112.629 21.78C111.749 21.42 110.984 20.9 110.334 20.22C109.694 19.53 109.194 18.68 108.834 17.67C108.474 16.66 108.294 15.5 108.294 14.19C108.294 13.13 108.454 12.14 108.774 11.22C109.104 10.3 109.574 9.505 110.184 8.835C110.794 8.155 111.539 7.625 112.419 7.245C113.299 6.855 114.289 6.66 115.389 6.66C116.299 6.66 117.139 6.815 117.909 7.125C118.689 7.425 119.359 7.865 119.919 8.445C120.489 9.015 120.934 9.725 121.254 10.575C121.574 11.415 121.734 12.375 121.734 13.455C121.734 13.875 121.689 14.155 121.599 14.295C121.509 14.435 121.339 14.505 121.089 14.505H110.934C110.964 15.465 111.094 16.3 111.324 17.01C111.564 17.72 111.894 18.315 112.314 18.795C112.734 19.265 113.234 19.62 113.814 19.86C114.394 20.09 115.044 20.205 115.764 20.205C116.434 20.205 117.009 20.13 117.489 19.98C117.979 19.82 118.399 19.65 118.749 19.47C119.099 19.29 119.389 19.125 119.619 18.975C119.859 18.815 120.064 18.735 120.234 18.735C120.454 18.735 120.624 18.82 120.744 18.99L121.494 19.965Z" fill="#F1EDED"/>
<path d="M153.179 11.355C153.179 12.965 152.924 14.445 152.414 15.795C151.904 17.135 151.184 18.29 150.254 19.26C149.324 20.23 148.204 20.985 146.894 21.525C145.594 22.055 144.154 22.32 142.574 22.32C140.994 22.32 139.554 22.055 138.254 21.525C136.954 20.985 135.839 20.23 134.909 19.26C133.979 18.29 133.259 17.135 132.749 15.795C132.239 14.445 131.984 12.965 131.984 11.355C131.984 9.745 132.239 8.27 132.749 6.93C133.259 5.58 133.979 4.42 134.909 3.45C135.839 2.47 136.954 1.71 138.254 1.17C139.554 0.629999 140.994 0.359999 142.574 0.359999C144.154 0.359999 145.594 0.629999 146.894 1.17C148.204 1.71 149.324 2.47 150.254 3.45C151.184 4.42 151.904 5.58 152.414 6.93C152.924 8.27 153.179 9.745 153.179 11.355ZM150.194 11.355C150.194 10.035 150.014 8.85 149.654 7.8C149.294 6.75 148.784 5.865 148.124 5.145C147.464 4.415 146.664 3.855 145.724 3.465C144.784 3.075 143.734 2.88 142.574 2.88C141.424 2.88 140.379 3.075 139.439 3.465C138.499 3.855 137.694 4.415 137.024 5.145C136.364 5.865 135.854 6.75 135.494 7.8C135.134 8.85 134.954 10.035 134.954 11.355C134.954 12.675 135.134 13.86 135.494 14.91C135.854 15.95 136.364 16.835 137.024 17.565C137.694 18.285 138.499 18.84 139.439 19.23C140.379 19.61 141.424 19.8 142.574 19.8C143.734 19.8 144.784 19.61 145.724 19.23C146.664 18.84 147.464 18.285 148.124 17.565C148.784 16.835 149.294 15.95 149.654 14.91C150.014 13.86 150.194 12.675 150.194 11.355Z" fill="#F1EDED"/>
<path d="M158.94 9.105C159.27 8.735 159.62 8.4 159.99 8.1C160.36 7.8 160.75 7.545 161.16 7.335C161.58 7.115 162.02 6.95 162.48 6.84C162.95 6.72 163.455 6.66 163.995 6.66C164.825 6.66 165.555 6.8 166.185 7.08C166.825 7.35 167.355 7.74 167.775 8.25C168.205 8.75 168.53 9.355 168.75 10.065C168.97 10.775 169.08 11.56 169.08 12.42V22.095H166.395V12.42C166.395 11.27 166.13 10.38 165.6 9.75C165.08 9.11 164.285 8.79 163.215 8.79C162.425 8.79 161.685 8.98 160.995 9.36C160.315 9.74 159.685 10.255 159.105 10.905V22.095H156.42V6.9H158.025C158.405 6.9 158.64 7.085 158.73 7.455L158.94 9.105Z" fill="#F1EDED"/>
<path d="M175.908 0V22.095H173.238V0H175.908Z" fill="#F1EDED"/>
<path d="M183.058 6.9V22.095H180.388V6.9H183.058ZM183.628 2.13C183.628 2.39 183.573 2.635 183.463 2.865C183.363 3.085 183.223 3.285 183.043 3.465C182.873 3.635 182.668 3.77 182.428 3.87C182.198 3.97 181.953 4.02 181.693 4.02C181.433 4.02 181.188 3.97 180.958 3.87C180.738 3.77 180.543 3.635 180.373 3.465C180.203 3.285 180.068 3.085 179.968 2.865C179.868 2.635 179.818 2.39 179.818 2.13C179.818 1.87 179.868 1.625 179.968 1.395C180.068 1.155 180.203 0.95 180.373 0.779999C180.543 0.6 180.738 0.46 180.958 0.359999C181.188 0.259999 181.433 0.209999 181.693 0.209999C181.953 0.209999 182.198 0.259999 182.428 0.359999C182.668 0.46 182.873 0.6 183.043 0.779999C183.223 0.95 183.363 1.155 183.463 1.395C183.573 1.625 183.628 1.87 183.628 2.13Z" fill="#F1EDED"/>
<path d="M189.965 9.105C190.295 8.735 190.645 8.4 191.015 8.1C191.385 7.8 191.775 7.545 192.185 7.335C192.605 7.115 193.045 6.95 193.505 6.84C193.975 6.72 194.48 6.66 195.02 6.66C195.85 6.66 196.58 6.8 197.21 7.08C197.85 7.35 198.38 7.74 198.8 8.25C199.23 8.75 199.555 9.355 199.775 10.065C199.995 10.775 200.105 11.56 200.105 12.42V22.095H197.42V12.42C197.42 11.27 197.155 10.38 196.625 9.75C196.105 9.11 195.31 8.79 194.24 8.79C193.45 8.79 192.71 8.98 192.02 9.36C191.34 9.74 190.71 10.255 190.13 10.905V22.095H187.445V6.9H189.05C189.43 6.9 189.665 7.085 189.755 7.455L189.965 9.105Z" fill="#F1EDED"/>
<path d="M214.343 12.84C214.343 12.22 214.253 11.655 214.073 11.145C213.903 10.625 213.648 10.18 213.308 9.81C212.978 9.43 212.573 9.14 212.093 8.94C211.613 8.73 211.068 8.625 210.458 8.625C209.178 8.625 208.163 9 207.413 9.75C206.673 10.49 206.213 11.52 206.033 12.84H214.343ZM216.503 19.965C216.173 20.365 215.778 20.715 215.318 21.015C214.858 21.305 214.363 21.545 213.833 21.735C213.313 21.925 212.773 22.065 212.213 22.155C211.653 22.255 211.098 22.305 210.548 22.305C209.498 22.305 208.528 22.13 207.638 21.78C206.758 21.42 205.993 20.9 205.343 20.22C204.703 19.53 204.203 18.68 203.843 17.67C203.483 16.66 203.303 15.5 203.303 14.19C203.303 13.13 203.463 12.14 203.783 11.22C204.113 10.3 204.583 9.505 205.193 8.835C205.803 8.155 206.548 7.625 207.428 7.245C208.308 6.855 209.298 6.66 210.398 6.66C211.308 6.66 212.148 6.815 212.918 7.125C213.698 7.425 214.368 7.865 214.928 8.445C215.498 9.015 215.943 9.725 216.263 10.575C216.583 11.415 216.743 12.375 216.743 13.455C216.743 13.875 216.698 14.155 216.608 14.295C216.518 14.435 216.348 14.505 216.098 14.505H205.943C205.973 15.465 206.103 16.3 206.333 17.01C206.573 17.72 206.903 18.315 207.323 18.795C207.743 19.265 208.243 19.62 208.823 19.86C209.403 20.09 210.053 20.205 210.773 20.205C211.443 20.205 212.018 20.13 212.498 19.98C212.988 19.82 213.408 19.65 213.758 19.47C214.108 19.29 214.398 19.125 214.628 18.975C214.868 18.815 215.073 18.735 215.243 18.735C215.463 18.735 215.633 18.82 215.753 18.99L216.503 19.965Z" fill="#F1EDED"/>
</svg>
