<svg width="201" height="21" viewBox="0 0 201 21" fill="none" xmlns="http://www.w3.org/2000/svg">
<path d="M18.5815 0.553846L10.4954 20.3954H8.08615L0 0.553846H2.14615C2.38615 0.553846 2.58 0.613846 2.72769 0.733846C2.87538 0.853846 2.98615 1.00615 3.06 1.19077L8.65385 15.1892C8.77385 15.5031 8.88923 15.8446 9 16.2138C9.12 16.5831 9.22615 16.9708 9.31846 17.3769C9.41077 16.9708 9.50769 16.5831 9.60923 16.2138C9.71077 15.8446 9.82154 15.5031 9.94154 15.1892L15.5215 1.19077C15.5769 1.03385 15.6831 0.890769 15.84 0.761538C16.0062 0.623076 16.2046 0.553846 16.4354 0.553846H18.5815Z" fill="#F1EDED"/>
<path d="M26.1835 14.0815C25.0481 14.1185 24.0789 14.2108 23.2758 14.3585C22.482 14.4969 21.8312 14.6815 21.3235 14.9123C20.825 15.1431 20.4604 15.4154 20.2297 15.7292C20.0081 16.0431 19.8974 16.3938 19.8974 16.7815C19.8974 17.1508 19.9574 17.4692 20.0774 17.7369C20.1974 18.0046 20.3589 18.2262 20.562 18.4015C20.7743 18.5677 21.0189 18.6923 21.2958 18.7754C21.582 18.8492 21.8866 18.8862 22.2097 18.8862C22.6435 18.8862 23.0404 18.8446 23.4004 18.7615C23.7604 18.6692 24.0974 18.54 24.4112 18.3738C24.7343 18.2077 25.0389 18.0092 25.325 17.7785C25.6204 17.5477 25.9066 17.2846 26.1835 16.9892V14.0815ZM18.222 8.34923C18.9974 7.60154 19.8327 7.04308 20.7281 6.67385C21.6235 6.30462 22.6158 6.12 23.705 6.12C24.4897 6.12 25.1866 6.24923 25.7958 6.50769C26.405 6.76615 26.9174 7.12615 27.3327 7.58769C27.7481 8.04923 28.062 8.60769 28.2743 9.26308C28.4866 9.91846 28.5927 10.6385 28.5927 11.4231V20.3954H27.4989C27.2589 20.3954 27.0743 20.3585 26.945 20.2846C26.8158 20.2015 26.7143 20.0446 26.6404 19.8138L26.3635 18.4846C25.9943 18.8262 25.6343 19.1308 25.2835 19.3985C24.9327 19.6569 24.5635 19.8785 24.1758 20.0631C23.7881 20.2385 23.3727 20.3723 22.9297 20.4646C22.4958 20.5662 22.0112 20.6169 21.4758 20.6169C20.9312 20.6169 20.4189 20.5431 19.9389 20.3954C19.4589 20.2385 19.0389 20.0077 18.6789 19.7031C18.3281 19.3985 18.0466 19.0154 17.8343 18.5538C17.6312 18.0831 17.5297 17.5292 17.5297 16.8923C17.5297 16.3385 17.682 15.8077 17.9866 15.3C18.2912 14.7831 18.785 14.3262 19.4681 13.9292C20.1512 13.5323 21.042 13.2092 22.1404 12.96C23.2389 12.7015 24.5866 12.5538 26.1835 12.5169V11.4231C26.1835 10.3338 25.9481 9.51231 25.4774 8.95846C25.0066 8.39538 24.3189 8.11385 23.4143 8.11385C22.805 8.11385 22.2927 8.19231 21.8774 8.34923C21.4712 8.49692 21.1158 8.66769 20.8112 8.86154C20.5158 9.04615 20.2574 9.21692 20.0358 9.37385C19.8235 9.52154 19.6112 9.59539 19.3989 9.59539C19.2327 9.59539 19.0897 9.55385 18.9697 9.47077C18.8497 9.37846 18.7481 9.26769 18.665 9.13846L18.222 8.34923Z" fill="#F1EDED"/>
<path d="M34.6732 8.40462C34.9778 8.06308 35.3008 7.75385 35.6424 7.47692C35.9839 7.2 36.3439 6.96462 36.7224 6.77077C37.1101 6.56769 37.5162 6.41538 37.9408 6.31385C38.3747 6.20308 38.8408 6.14769 39.3393 6.14769C40.1055 6.14769 40.7793 6.27692 41.3608 6.53539C41.9516 6.78462 42.4408 7.14462 42.8285 7.61538C43.2255 8.07692 43.5255 8.63539 43.7285 9.29077C43.9316 9.94615 44.0332 10.6708 44.0332 11.4646V20.3954H41.5547V11.4646C41.5547 10.4031 41.3101 9.58154 40.8208 9C40.3408 8.40923 39.607 8.11385 38.6193 8.11385C37.8901 8.11385 37.207 8.28923 36.5701 8.64C35.9424 8.99077 35.3608 9.46615 34.8255 10.0662V20.3954H32.347V6.36923H33.8285C34.1793 6.36923 34.3962 6.54 34.4793 6.88154L34.6732 8.40462Z" fill="#F1EDED"/>
<path d="M55.9579 8.68154C55.8472 8.88462 55.6764 8.98615 55.4456 8.98615C55.3072 8.98615 55.1502 8.93538 54.9749 8.83385C54.7995 8.73231 54.5825 8.62154 54.3241 8.50154C54.0749 8.37231 53.7749 8.25692 53.4241 8.15539C53.0733 8.04462 52.6579 7.98923 52.1779 7.98923C51.7625 7.98923 51.3887 8.04462 51.0564 8.15539C50.7241 8.25692 50.4379 8.4 50.1979 8.58462C49.9672 8.76923 49.7872 8.98615 49.6579 9.23539C49.5379 9.47539 49.4779 9.73846 49.4779 10.0246C49.4779 10.3846 49.5795 10.6846 49.7825 10.9246C49.9949 11.1646 50.2718 11.3723 50.6133 11.5477C50.9549 11.7231 51.3425 11.88 51.7764 12.0185C52.2102 12.1477 52.6533 12.2908 53.1056 12.4477C53.5672 12.5954 54.0149 12.7615 54.4487 12.9462C54.8825 13.1308 55.2702 13.3615 55.6118 13.6385C55.9533 13.9154 56.2256 14.2569 56.4287 14.6631C56.641 15.06 56.7472 15.54 56.7472 16.1031C56.7472 16.7492 56.6318 17.3492 56.401 17.9031C56.1702 18.4477 55.8287 18.9231 55.3764 19.3292C54.9241 19.7262 54.3702 20.04 53.7149 20.2708C53.0595 20.5015 52.3025 20.6169 51.4441 20.6169C50.4656 20.6169 49.5795 20.46 48.7856 20.1462C47.9918 19.8231 47.3179 19.4123 46.7641 18.9138L47.3456 17.9723C47.4195 17.8523 47.5072 17.76 47.6087 17.6954C47.7102 17.6308 47.8395 17.5985 47.9964 17.5985C48.1625 17.5985 48.3379 17.6631 48.5225 17.7923C48.7072 17.9215 48.9287 18.0646 49.1872 18.2215C49.4549 18.3785 49.7779 18.5215 50.1564 18.6508C50.5349 18.78 51.0056 18.8446 51.5687 18.8446C52.0487 18.8446 52.4687 18.7846 52.8287 18.6646C53.1887 18.5354 53.4887 18.3646 53.7287 18.1523C53.9687 17.94 54.1441 17.6954 54.2549 17.4185C54.3749 17.1415 54.4349 16.8462 54.4349 16.5323C54.4349 16.1446 54.3287 15.8262 54.1164 15.5769C53.9133 15.3185 53.641 15.1015 53.2995 14.9262C52.9579 14.7415 52.5656 14.5846 52.1225 14.4554C51.6887 14.3169 51.241 14.1738 50.7795 14.0262C50.3272 13.8785 49.8795 13.7123 49.4364 13.5277C49.0025 13.3338 48.6149 13.0938 48.2733 12.8077C47.9318 12.5215 47.6549 12.1708 47.4425 11.7554C47.2395 11.3308 47.1379 10.8185 47.1379 10.2185C47.1379 9.68308 47.2487 9.17077 47.4702 8.68154C47.6918 8.18308 48.0149 7.74923 48.4395 7.38C48.8641 7.00154 49.3856 6.70154 50.0041 6.48C50.6225 6.25846 51.3287 6.14769 52.1225 6.14769C53.0456 6.14769 53.8718 6.29538 54.601 6.59077C55.3395 6.87692 55.9764 7.27385 56.5118 7.78154L55.9579 8.68154Z" fill="#F1EDED"/>
<path d="M64.075 20.6169C62.9673 20.6169 62.1135 20.3077 61.5135 19.6892C60.9227 19.0708 60.6273 18.18 60.6273 17.0169V8.43231H58.9381C58.7904 8.43231 58.6658 8.39077 58.5643 8.30769C58.4627 8.21538 58.4119 8.07692 58.4119 7.89231V6.90923L60.7104 6.61846L61.2781 2.28462C61.3058 2.14615 61.3658 2.03538 61.4581 1.95231C61.5596 1.86 61.6889 1.81385 61.8458 1.81385H63.092V6.64615H67.1489V8.43231H63.092V16.8508C63.092 17.4415 63.235 17.88 63.5212 18.1662C63.8073 18.4523 64.1766 18.5954 64.6289 18.5954C64.8873 18.5954 65.1089 18.5631 65.2935 18.4985C65.4873 18.4246 65.6535 18.3462 65.792 18.2631C65.9304 18.18 66.0458 18.1062 66.1381 18.0415C66.2396 17.9677 66.3273 17.9308 66.4012 17.9308C66.5304 17.9308 66.6458 18.0092 66.7473 18.1662L67.4673 19.3431C67.0427 19.74 66.5304 20.0538 65.9304 20.2846C65.3304 20.5062 64.7119 20.6169 64.075 20.6169Z" fill="#F1EDED"/>
<path d="M75.5249 6.14769C76.5495 6.14769 77.4726 6.31846 78.2942 6.66C79.1157 7.00154 79.8172 7.48615 80.3988 8.11385C80.9803 8.74154 81.4234 9.50308 81.728 10.3985C82.0419 11.2846 82.1988 12.2769 82.1988 13.3754C82.1988 14.4831 82.0419 15.48 81.728 16.3662C81.4234 17.2523 80.9803 18.0092 80.3988 18.6369C79.8172 19.2646 79.1157 19.7492 78.2942 20.0908C77.4726 20.4231 76.5495 20.5892 75.5249 20.5892C74.4911 20.5892 73.5588 20.4231 72.728 20.0908C71.9065 19.7492 71.2049 19.2646 70.6234 18.6369C70.0419 18.0092 69.5942 17.2523 69.2803 16.3662C68.9757 15.48 68.8234 14.4831 68.8234 13.3754C68.8234 12.2769 68.9757 11.2846 69.2803 10.3985C69.5942 9.50308 70.0419 8.74154 70.6234 8.11385C71.2049 7.48615 71.9065 7.00154 72.728 6.66C73.5588 6.31846 74.4911 6.14769 75.5249 6.14769ZM75.5249 18.6646C76.9095 18.6646 77.9434 18.2031 78.6265 17.28C79.3095 16.3477 79.6511 15.0508 79.6511 13.3892C79.6511 11.7185 79.3095 10.4169 78.6265 9.48462C77.9434 8.55231 76.9095 8.08615 75.5249 8.08615C74.8234 8.08615 74.2095 8.20616 73.6834 8.44616C73.1665 8.68616 72.7326 9.03231 72.3819 9.48462C72.0403 9.93692 71.7819 10.4954 71.6065 11.16C71.4403 11.8154 71.3572 12.5585 71.3572 13.3892C71.3572 15.0508 71.6988 16.3477 72.3819 17.28C73.0742 18.2031 74.1219 18.6646 75.5249 18.6646Z" fill="#F1EDED"/>
<path d="M87.6509 8.40462C87.9555 8.06308 88.2786 7.75385 88.6201 7.47692C88.9617 7.2 89.3217 6.96462 89.7002 6.77077C90.0878 6.56769 90.494 6.41538 90.9186 6.31385C91.3525 6.20308 91.8186 6.14769 92.3171 6.14769C93.0832 6.14769 93.7571 6.27692 94.3386 6.53539C94.9294 6.78462 95.4186 7.14462 95.8063 7.61538C96.2032 8.07692 96.5032 8.63539 96.7063 9.29077C96.9094 9.94615 97.0109 10.6708 97.0109 11.4646V20.3954H94.5325V11.4646C94.5325 10.4031 94.2878 9.58154 93.7986 9C93.3186 8.40923 92.5848 8.11385 91.5971 8.11385C90.8678 8.11385 90.1848 8.28923 89.5478 8.64C88.9202 8.99077 88.3386 9.46615 87.8032 10.0662V20.3954H85.3248V6.36923H86.8063C87.1571 6.36923 87.374 6.54 87.4571 6.88154L87.6509 8.40462Z" fill="#F1EDED"/>
<path d="M110.154 11.8523C110.154 11.28 110.071 10.7585 109.905 10.2877C109.748 9.80769 109.513 9.39692 109.199 9.05538C108.894 8.70462 108.52 8.43692 108.077 8.25231C107.634 8.05846 107.131 7.96154 106.568 7.96154C105.386 7.96154 104.45 8.30769 103.757 9C103.074 9.68308 102.65 10.6338 102.483 11.8523H110.154ZM112.148 18.4292C111.843 18.7985 111.479 19.1215 111.054 19.3985C110.63 19.6662 110.173 19.8877 109.683 20.0631C109.203 20.2385 108.705 20.3677 108.188 20.4508C107.671 20.5431 107.159 20.5892 106.651 20.5892C105.682 20.5892 104.786 20.4277 103.965 20.1046C103.153 19.7723 102.446 19.2923 101.846 18.6646C101.256 18.0277 100.794 17.2431 100.462 16.3108C100.13 15.3785 99.9634 14.3077 99.9634 13.0985C99.9634 12.12 100.111 11.2062 100.406 10.3569C100.711 9.50769 101.145 8.77385 101.708 8.15539C102.271 7.52769 102.959 7.03846 103.771 6.68769C104.583 6.32769 105.497 6.14769 106.513 6.14769C107.353 6.14769 108.128 6.29077 108.839 6.57692C109.559 6.85385 110.177 7.26 110.694 7.79539C111.22 8.32154 111.631 8.97692 111.926 9.76154C112.222 10.5369 112.37 11.4231 112.37 12.42C112.37 12.8077 112.328 13.0662 112.245 13.1954C112.162 13.3246 112.005 13.3892 111.774 13.3892H102.4C102.428 14.2754 102.548 15.0462 102.76 15.7015C102.982 16.3569 103.286 16.9062 103.674 17.3492C104.062 17.7831 104.523 18.1108 105.059 18.3323C105.594 18.5446 106.194 18.6508 106.859 18.6508C107.477 18.6508 108.008 18.5815 108.451 18.4431C108.903 18.2954 109.291 18.1385 109.614 17.9723C109.937 17.8062 110.205 17.6538 110.417 17.5154C110.639 17.3677 110.828 17.2938 110.985 17.2938C111.188 17.2938 111.345 17.3723 111.456 17.5292L112.148 18.4292Z" fill="#F1EDED"/>
<path d="M141.396 10.4815C141.396 11.9677 141.161 13.3338 140.69 14.58C140.219 15.8169 139.555 16.8831 138.696 17.7785C137.838 18.6738 136.804 19.3708 135.595 19.8692C134.395 20.3585 133.065 20.6031 131.607 20.6031C130.148 20.6031 128.819 20.3585 127.619 19.8692C126.419 19.3708 125.39 18.6738 124.531 17.7785C123.673 16.8831 123.008 15.8169 122.538 14.58C122.067 13.3338 121.831 11.9677 121.831 10.4815C121.831 8.99539 122.067 7.63385 122.538 6.39692C123.008 5.15077 123.673 4.08 124.531 3.18462C125.39 2.28 126.419 1.57846 127.619 1.08C128.819 0.581538 130.148 0.332307 131.607 0.332307C133.065 0.332307 134.395 0.581538 135.595 1.08C136.804 1.57846 137.838 2.28 138.696 3.18462C139.555 4.08 140.219 5.15077 140.69 6.39692C141.161 7.63385 141.396 8.99539 141.396 10.4815ZM138.641 10.4815C138.641 9.26308 138.475 8.16923 138.142 7.2C137.81 6.23077 137.339 5.41385 136.73 4.74923C136.121 4.07538 135.382 3.55846 134.515 3.19846C133.647 2.83846 132.678 2.65846 131.607 2.65846C130.545 2.65846 129.581 2.83846 128.713 3.19846C127.845 3.55846 127.102 4.07538 126.484 4.74923C125.875 5.41385 125.404 6.23077 125.071 7.2C124.739 8.16923 124.573 9.26308 124.573 10.4815C124.573 11.7 124.739 12.7938 125.071 13.7631C125.404 14.7231 125.875 15.54 126.484 16.2138C127.102 16.8785 127.845 17.3908 128.713 17.7508C129.581 18.1015 130.545 18.2769 131.607 18.2769C132.678 18.2769 133.647 18.1015 134.515 17.7508C135.382 17.3908 136.121 16.8785 136.73 16.2138C137.339 15.54 137.81 14.7231 138.142 13.7631C138.475 12.7938 138.641 11.7 138.641 10.4815Z" fill="#F1EDED"/>
<path d="M146.713 8.40462C147.018 8.06308 147.341 7.75385 147.683 7.47692C148.024 7.2 148.384 6.96462 148.763 6.77077C149.15 6.56769 149.556 6.41538 149.981 6.31385C150.415 6.20308 150.881 6.14769 151.38 6.14769C152.146 6.14769 152.82 6.27692 153.401 6.53539C153.992 6.78462 154.481 7.14462 154.869 7.61538C155.266 8.07692 155.566 8.63539 155.769 9.29077C155.972 9.94615 156.073 10.6708 156.073 11.4646V20.3954H153.595V11.4646C153.595 10.4031 153.35 9.58154 152.861 9C152.381 8.40923 151.647 8.11385 150.66 8.11385C149.93 8.11385 149.247 8.28923 148.61 8.64C147.983 8.99077 147.401 9.46615 146.866 10.0662V20.3954H144.387V6.36923H145.869C146.22 6.36923 146.436 6.54 146.52 6.88154L146.713 8.40462Z" fill="#F1EDED"/>
<path d="M162.377 0V20.3954H159.912V0H162.377Z" fill="#F1EDED"/>
<path d="M168.977 6.36923V20.3954H166.512V6.36923H168.977ZM169.503 1.96615C169.503 2.20615 169.452 2.43231 169.35 2.64461C169.258 2.84769 169.129 3.03231 168.963 3.19846C168.806 3.35539 168.617 3.48 168.395 3.57231C168.183 3.66462 167.957 3.71077 167.717 3.71077C167.477 3.71077 167.25 3.66462 167.038 3.57231C166.835 3.48 166.655 3.35539 166.498 3.19846C166.341 3.03231 166.217 2.84769 166.124 2.64461C166.032 2.43231 165.986 2.20615 165.986 1.96615C165.986 1.72615 166.032 1.5 166.124 1.28769C166.217 1.06615 166.341 0.876923 166.498 0.719999C166.655 0.553847 166.835 0.424616 167.038 0.332307C167.25 0.239999 167.477 0.193845 167.717 0.193845C167.957 0.193845 168.183 0.239999 168.395 0.332307C168.617 0.424616 168.806 0.553847 168.963 0.719999C169.129 0.876923 169.258 1.06615 169.35 1.28769C169.452 1.5 169.503 1.72615 169.503 1.96615Z" fill="#F1EDED"/>
<path d="M175.352 8.40462C175.657 8.06308 175.98 7.75385 176.321 7.47692C176.663 7.2 177.023 6.96462 177.401 6.77077C177.789 6.56769 178.195 6.41538 178.62 6.31385C179.054 6.20308 179.52 6.14769 180.018 6.14769C180.785 6.14769 181.458 6.27692 182.04 6.53539C182.631 6.78462 183.12 7.14462 183.508 7.61538C183.905 8.07692 184.205 8.63539 184.408 9.29077C184.611 9.94615 184.712 10.6708 184.712 11.4646V20.3954H182.234V11.4646C182.234 10.4031 181.989 9.58154 181.5 9C181.02 8.40923 180.286 8.11385 179.298 8.11385C178.569 8.11385 177.886 8.28923 177.249 8.64C176.621 8.99077 176.04 9.46615 175.505 10.0662V20.3954H173.026V6.36923H174.508C174.858 6.36923 175.075 6.54 175.158 6.88154L175.352 8.40462Z" fill="#F1EDED"/>
<path d="M197.855 11.8523C197.855 11.28 197.772 10.7585 197.606 10.2877C197.449 9.80769 197.214 9.39692 196.9 9.05538C196.595 8.70462 196.222 8.43692 195.779 8.25231C195.335 8.05846 194.832 7.96154 194.269 7.96154C193.088 7.96154 192.151 8.30769 191.459 9C190.775 9.68308 190.351 10.6338 190.185 11.8523H197.855ZM199.849 18.4292C199.545 18.7985 199.18 19.1215 198.755 19.3985C198.331 19.6662 197.874 19.8877 197.385 20.0631C196.905 20.2385 196.406 20.3677 195.889 20.4508C195.372 20.5431 194.86 20.5892 194.352 20.5892C193.383 20.5892 192.488 20.4277 191.666 20.1046C190.854 19.7723 190.148 19.2923 189.548 18.6646C188.957 18.0277 188.495 17.2431 188.163 16.3108C187.831 15.3785 187.665 14.3077 187.665 13.0985C187.665 12.12 187.812 11.2062 188.108 10.3569C188.412 9.50769 188.846 8.77385 189.409 8.15539C189.972 7.52769 190.66 7.03846 191.472 6.68769C192.285 6.32769 193.199 6.14769 194.214 6.14769C195.054 6.14769 195.829 6.29077 196.54 6.57692C197.26 6.85385 197.879 7.26 198.395 7.79539C198.922 8.32154 199.332 8.97692 199.628 9.76154C199.923 10.5369 200.071 11.4231 200.071 12.42C200.071 12.8077 200.029 13.0662 199.946 13.1954C199.863 13.3246 199.706 13.3892 199.475 13.3892H190.102C190.129 14.2754 190.249 15.0462 190.462 15.7015C190.683 16.3569 190.988 16.9062 191.375 17.3492C191.763 17.7831 192.225 18.1108 192.76 18.3323C193.295 18.5446 193.895 18.6508 194.56 18.6508C195.179 18.6508 195.709 18.5815 196.152 18.4431C196.605 18.2954 196.992 18.1385 197.315 17.9723C197.639 17.8062 197.906 17.6538 198.119 17.5154C198.34 17.3677 198.529 17.2938 198.686 17.2938C198.889 17.2938 199.046 17.3723 199.157 17.5292L199.849 18.4292Z" fill="#F1EDED"/>
</svg>
