<svg width="60" height="60" viewBox="0 0 60 60" fill="none" xmlns="http://www.w3.org/2000/svg">
<circle cx="30" cy="30" r="30" fill="#C4C4C4"/>
<path d="M41.2729 23.9829C42.3058 25.8721 42.8457 27.9912 42.8429 30.1444C42.8434 32.3918 42.2539 34.6001 41.1333 36.5483C40.0127 38.4965 38.4002 40.1163 36.4572 41.2458L40.38 29.9044C41.1129 28.0729 41.3572 26.6058 41.3572 25.3058C41.3577 24.8635 41.3295 24.4216 41.2729 23.9829V23.9829ZM31.7714 24.1072C32.2614 24.0831 32.7503 24.0412 33.2372 23.9815C33.93 23.8915 33.8486 22.8744 33.1572 22.9115C33.1572 22.9115 31.0672 23.0715 29.7286 23.0715C28.4614 23.0715 26.3357 22.8929 26.3357 22.8929C25.64 22.8586 25.55 23.9115 26.2486 23.9472C26.2486 23.9472 26.89 24.0215 27.5886 24.0544L29.5872 29.5372L26.7657 37.9644L22.0886 24.0729C22.8614 24.0358 23.5572 23.9544 23.5572 23.9544C24.2529 23.8644 24.1714 22.8472 23.4786 22.8872C23.4786 22.8872 21.4 23.0515 20.0572 23.0515C19.8186 23.0515 19.5357 23.0415 19.2357 23.0329C21.5614 19.6086 25.5172 17.3044 30 17.3044C33.3443 17.3044 36.3872 18.5815 38.6729 20.6758C38.6186 20.6729 38.5643 20.6644 38.5057 20.6644C37.2443 20.6644 36.3486 21.7644 36.3486 22.9444C36.3486 24.0029 36.9586 24.9001 37.61 25.9558C38.1 26.8144 38.67 27.9129 38.67 29.5001C38.67 30.5901 38.2486 31.8744 37.6914 33.6415L36.4114 37.9086L31.7686 24.0872L31.7714 24.1072V24.1072ZM30 42.9815C28.7718 42.9827 27.5498 42.8076 26.3714 42.4615L30.2243 31.2644L34.1714 42.0815C34.2014 42.1444 34.2314 42.2029 34.2643 42.2586C32.8939 42.7392 31.4522 42.9846 30 42.9844V42.9815ZM17.1572 30.1444C17.1551 28.3436 17.5338 26.5627 18.2686 24.9186L24.3929 41.7029C22.2235 40.6496 20.3944 39.007 19.1149 36.9629C17.8353 34.9188 17.1568 32.5559 17.1572 30.1444V30.1444ZM30 15.8586C22.1243 15.8586 15.7143 22.2686 15.7143 30.1444C15.7143 38.0201 22.1243 44.4301 30 44.4301C37.8757 44.4301 44.2857 38.0201 44.2857 30.1444C44.2857 22.2686 37.8757 15.8586 30 15.8586" fill="black"/>
</svg>
