<svg width="70" height="70" viewBox="0 0 70 70" fill="none" xmlns="http://www.w3.org/2000/svg">
<circle cx="35" cy="35" r="35" fill="#C4C4C4"/>
<path d="M48.1517 27.98C49.3567 30.1841 49.9867 32.6564 49.9833 35.1683C49.984 37.7904 49.2962 40.3667 47.9888 42.6396C46.6814 44.9125 44.8002 46.8023 42.5333 48.12L47.11 34.8883C47.965 32.7517 48.25 31.04 48.25 29.5233C48.2506 29.0073 48.2178 28.4918 48.1517 27.98V27.98ZM37.0667 28.125C37.6383 28.0969 38.2086 28.048 38.7767 27.9783C39.585 27.8733 39.49 26.6867 38.6833 26.73C38.6833 26.73 36.245 26.9167 34.6833 26.9167C33.205 26.9167 30.725 26.7083 30.725 26.7083C29.9133 26.6683 29.8083 27.8967 30.6233 27.9383C30.6233 27.9383 31.3717 28.025 32.1867 28.0633L34.5183 34.46L31.2267 44.2917L25.77 28.085C26.6717 28.0417 27.4833 27.9467 27.4833 27.9467C28.295 27.8417 28.2 26.655 27.3917 26.7017C27.3917 26.7017 24.9667 26.8933 23.4 26.8933C23.1217 26.8933 22.7917 26.8817 22.4417 26.8717C25.155 22.8767 29.77 20.1883 35 20.1883C38.9017 20.1883 42.4517 21.6783 45.1183 24.1217C45.055 24.1183 44.9917 24.1083 44.9233 24.1083C43.4517 24.1083 42.4067 25.3917 42.4067 26.7683C42.4067 28.0033 43.1183 29.05 43.8783 30.2817C44.45 31.2833 45.115 32.565 45.115 34.4167C45.115 35.6883 44.6233 37.1867 43.9733 39.2483L42.48 44.2267L37.0633 28.1017L37.0667 28.125V28.125ZM35 50.145C33.5671 50.1464 32.1415 49.9421 30.7667 49.5383L35.2617 36.475L39.8667 49.095C39.9017 49.1683 39.9367 49.2367 39.975 49.3017C38.3763 49.8623 36.6942 50.1486 35 50.1483V50.145ZM20.0167 35.1683C20.0142 33.0674 20.4561 30.9897 21.3133 29.0717L28.4583 48.6533C25.9274 47.4245 23.7935 45.508 22.3007 43.1233C20.8078 40.7386 20.0163 37.9818 20.0167 35.1683V35.1683ZM35 18.5017C25.8117 18.5017 18.3333 25.98 18.3333 35.1683C18.3333 44.3567 25.8117 51.835 35 51.835C44.1883 51.835 51.6667 44.3567 51.6667 35.1683C51.6667 25.98 44.1883 18.5017 35 18.5017" fill="black"/>
</svg>
